# xmcd CD database file
#
# Track frame offsets:
#	150
#	32026
#	58159
#	89961
#	119717
#	140807
#	170991
#	198508
#	229153
#	254499
#	276116
#	300477
#
# Disc length: 4435 seconds
#
# Revision: 0
# Processed by: cddbd v1.4PL0 Copyright (c) Steve Scherf et al.
# Submitted via: CDex 1.51
#
DISCID=c311510c
DTITLE=Alkemx - Magma
DYEAR=2003
DGENRE=New Age
TTITLE0=Marè
TTITLE1=Tonight
TTITLE2=Silence on the Seashore
TTITLE3=Blow me (away)
TTITLE4=Seductor
TTITLE5=Going into raptures
TTITLE6=Ax01
TTITLE7=Burning fire
TTITLE8=Minimal
TTITLE9=Time to lounge
TTITLE10=Musa's night
TTITLE11=Black angel
EXTD=YEAR: 2003
EXTT0=
EXTT1=
EXTT2=
EXTT3=
EXTT4=
EXTT5=
EXTT6=
EXTT7=
EXTT8=
EXTT9=
EXTT10=
EXTT11=
PLAYORDER=
